<svg xmlns="http://www.w3.org/2000/svg" viewBox="0 0 190.74 190.73" preserveAspectRatio="none meet">
  <defs>
    <style>.cls-1{fill:#fff;}.cls-2{fill:#f94346;}</style>
  </defs>
  <title>资源 2</title>
  <g id="图层_2" data-name="图层 2">
    <g id="图层_1-2" data-name="图层 1">
      <path class="cls-1" d="M0,0V190.73H190.74V0ZM184.25,158.78a25.46,25.46,0,0,1-25.46,25.46H32A25.45,25.45,0,0,1,6.5,158.78V32A25.45,25.45,0,0,1,32,6.49H158.79A25.46,25.46,0,0,1,184.25,32Z"/>
      <path class="cls-2" d="M171.27,186.88a2.48,2.48,0,0,1-1.5-.52,7,7,0,0,0-4.49-1.33,16.76,16.76,0,0,0-2.7.24l-.13,0h-.17a1.75,1.75,0,0,1-1.32-2.9L167.4,175a13.51,13.51,0,0,1-10.55-13.7,13.55,13.55,0,0,1,13-12.95h.53a13.5,13.5,0,0,1,13.49,13.49,13.24,13.24,0,0,1-1.41,6l-9,17.74A2.38,2.38,0,0,1,171.27,186.88Zm-.94-29a4.38,4.38,0,0,0-.88.09,4,4,0,1,0,4.5,5.67,3.86,3.86,0,0,0,.4-1.74A4,4,0,0,0,170.33,157.83Z"/>
      <path class="cls-1" d="M170.33,149.86a12,12,0,0,1,10.74,17.32h0l-.06.12-9,17.6a.85.85,0,0,1-.78.48.94.94,0,0,1-.57-.2,8.42,8.42,0,0,0-5.42-1.65,18.14,18.14,0,0,0-2.95.26h-.05a.25.25,0,0,1-.19-.41l8.33-9.55h-.09a12,12,0,0,1-.47-24Zm0,17.51a5.51,5.51,0,0,0,5-3.12,5.39,5.39,0,0,0,.55-2.4,5.52,5.52,0,0,0-5.52-5.52,5.42,5.42,0,0,0-1.19.13,5.52,5.52,0,0,0,1.19,10.91Zm0-20.51h-.59a15,15,0,0,0-5,28.9l-4.92,5.65a3.22,3.22,0,0,0-.51,3.47,3.26,3.26,0,0,0,3,1.91h.25l.3-.05a14.91,14.91,0,0,1,2.45-.22,5.4,5.4,0,0,1,3.57,1,4,4,0,0,0,2.42.84,3.85,3.85,0,0,0,3.45-2.11l8.19-16.09h0l.83-1.66a14.83,14.83,0,0,0,1.57-6.67,15,15,0,0,0-15-15Zm0,17.51a2.52,2.52,0,0,1-2.46-3.09,2.5,2.5,0,0,1,1.89-1.89,2.76,2.76,0,0,1,.57-.06h0a2.53,2.53,0,0,1,2.52,2.52,2.42,2.42,0,0,1-.25,1.09,2.51,2.51,0,0,1-2.27,1.43Z"/>
      <path class="cls-2" d="M144.88,183.3a13.51,13.51,0,0,1-13.49-13.49,13.37,13.37,0,0,1,1.41-6l9.13-17.94a2.39,2.39,0,0,1,2.13-1.3,2.35,2.35,0,0,1,1.1.27,14,14,0,0,0,6.2,1.61,10,10,0,0,0,1.35-.09h.23a1.75,1.75,0,0,1,1.33,2.89l-6.45,7.4a13.51,13.51,0,0,1,10.54,13.7,13.55,13.55,0,0,1-13,12.95Zm0-17.51a4,4,0,1,0,0,8,4.48,4.48,0,0,0,.89-.09,4,4,0,0,0-.89-8Z"/>
      <path class="cls-1" d="M144.05,146.07a.92.92,0,0,1,.42.1,15.46,15.46,0,0,0,6.89,1.78,11.74,11.74,0,0,0,1.55-.1h0a.25.25,0,0,1,.2.41l-8.35,9.56h.09a12,12,0,0,1,.48,24h-.48a12,12,0,0,1-12-12,11.79,11.79,0,0,1,1.26-5.33h0l.06-.12,9.06-17.81a.87.87,0,0,1,.78-.48Zm.83,29.26a5.42,5.42,0,0,0,1.19-.13,5.52,5.52,0,1,0-1.19.13Zm-.83-32.26a3.85,3.85,0,0,0-3.45,2.12l-8.29,16.29h0l-.83,1.66a14.83,14.83,0,0,0-1.57,6.67,15,15,0,0,0,15,15h.59a15,15,0,0,0,14.39-14.39,15,15,0,0,0-9.4-14.51l4.94-5.66a3.24,3.24,0,0,0-2.46-5.38h-.2l-.23,0a8.66,8.66,0,0,1-1.15.07,12.73,12.73,0,0,1-5.51-1.44,3.86,3.86,0,0,0-1.8-.44Zm.83,29.26a2.52,2.52,0,0,1-2.52-2.52,2.56,2.56,0,0,1,.25-1.09,2.52,2.52,0,1,1,2.85,3.55,2.93,2.93,0,0,1-.58.06Z"/>
      <circle class="cls-1" cx="144.76" cy="169.81" r="3.98"/>
      <circle class="cls-1" cx="170.33" cy="162.24" r="3.98"/>
      <rect class="cls-1" x="148.01" y="172.4" width="19.81" height="13.53"/>
      <path class="cls-2" d="M170.33,149.86a12,12,0,1,0,0,24h.09l-8.8,10.08c5.22-1,8,.06,9.91,2L181,167.3l.06-.12h0a12,12,0,0,0-10.74-17.32Zm0,17.51a5.52,5.52,0,1,1,5.52-5.52,5.39,5.39,0,0,1-.55,2.4A5.51,5.51,0,0,1,170.33,167.37Z"/>
      <path class="cls-2" d="M144.88,181.8a12,12,0,0,0,0-24h-.09l8.8-10.08c-5.21,1-9.9-2-9.9-2l-9.48,18.63-.06.12h0a11.79,11.79,0,0,0-1.26,5.33A12,12,0,0,0,144.88,181.8Zm0-17.51a5.52,5.52,0,1,1-5,3.12A5.52,5.52,0,0,1,144.88,164.29Z"/>
    </g>
  </g>
</svg>
